<!DOCTYPE svg PUBLIC "-//W3C//DTD SVG 1.1//EN" "http://www.w3.org/Graphics/SVG/1.1/DTD/svg11.dtd">
<!-- Uploaded to: SVG Repo, www.svgrepo.com, Transformed by: SVG Repo Mixer Tools -->
<svg height="64px" width="64px" version="1.1" id="_x32_" xmlns="http://www.w3.org/2000/svg" xmlns:xlink="http://www.w3.org/1999/xlink" viewBox="-179.2 -179.2 870.40 870.40" xml:space="preserve" fill="#000000" stroke="#000000">
<g id="SVGRepo_bgCarrier" stroke-width="0" transform="translate(0,0), scale(1)">
<rect x="-179.2" y="-179.2" width="870.40" height="870.40" rx="130.56" fill="#ff7a90" strokewidth="0"/>
</g>
<g id="SVGRepo_tracerCarrier" stroke-linecap="round" stroke-linejoin="round"/>
<g id="SVGRepo_iconCarrier"> <style type="text/css"> .st0{fill:#ffffff;} </style> <g> <path class="st0" d="M0,179.714v248.969c0,13.568,11.101,24.669,24.669,24.669h50.632V155.107H24.669 C11.101,155.107,0,166.146,0,179.714z"/> <path class="st0" d="M487.393,155.107h-50.632v298.245h50.632c13.506,0,24.607-11.101,24.607-24.669V179.714 C512,166.146,500.899,155.107,487.393,155.107z"/> <path class="st0" d="M357.765,81.621c0-12.668-10.305-22.973-22.97-22.973h-157.57c-12.672,0-22.976,10.305-22.976,22.973v73.486 h-30.101v298.245h263.709V155.107h-30.09V81.621z M197.418,101.818h117.177v53.289H197.418V101.818z"/> </g> </g>
</svg>