<!DOCTYPE svg PUBLIC "-//W3C//DTD SVG 1.1//EN" "http://www.w3.org/Graphics/SVG/1.1/DTD/svg11.dtd">
<!-- Uploaded to: SVG Repo, www.svgrepo.com, Transformed by: SVG Repo Mixer Tools -->
<svg width="64px" height="64px" viewBox="-6 -6 36.00 36.00" xmlns="http://www.w3.org/2000/svg" fill="#ffffff" transform="matrix(-1, 0, 0, 1, 0, 0)" stroke="#ffffff" stroke-width="0.00024000000000000003">
<g id="SVGRepo_bgCarrier" stroke-width="0" transform="translate(0,0), scale(1)">
<rect x="-6" y="-6" width="36.00" height="36.00" rx="5.4" fill="#000000" strokewidth="0"/>
</g>
<g id="SVGRepo_tracerCarrier" stroke-linecap="round" stroke-linejoin="round"/>
<g id="SVGRepo_iconCarrier">
<path fill="none" d="M17.434 9H15v3h4.233z"/>
<circle fill="none" cx="16.5" cy="17.5" r="1.5"/>
<circle fill="none" cx="6.5" cy="17.5" r="1.5"/>
<path d="M19.148 7.971A2.008 2.008 0 0 0 17.434 7H15V5a1 1 0 0 0-1-1H4c-1.103 0-2 .897-2 2v10c0 .746.416 1.391 1.023 1.734C3.146 19.553 4.65 21 6.5 21c1.759 0 3.204-1.309 3.449-3h3.102c.245 1.691 1.69 3 3.449 3s3.204-1.309 3.449-3H20c1.103 0 2-.897 2-2v-3a.995.995 0 0 0-.143-.515l-2.709-4.514zM15 9h2.434l1.8 3H15V9zM6.5 19c-.827 0-1.5-.673-1.5-1.5S5.673 16 6.5 16s1.5.673 1.5 1.5S7.327 19 6.5 19zm10 0c-.827 0-1.5-.673-1.5-1.5s.673-1.5 1.5-1.5 1.5.673 1.5 1.5-.673 1.5-1.5 1.5z"/>
</g>
</svg>